<?xml version="1.0" standalone="no"?>
<!DOCTYPE svg PUBLIC "-//W3C//DTD SVG 20010904//EN"
 "http://www.w3.org/TR/2001/REC-SVG-20010904/DTD/svg10.dtd">
<svg version="1.0" xmlns="http://www.w3.org/2000/svg"
 width="1125.000000pt" height="597.000000pt" viewBox="0 0 1125.000000 597.000000"
 preserveAspectRatio="xMidYMid meet">
<metadata>
Created by potrace 1.15, written by Peter Selinger 2001-2017
</metadata>
<g transform="translate(0.000000,597.000000) scale(0.100000,-0.100000)"
fill="#000000" stroke="none">
<path d="M500 4940 l0 -520 1300 0 1300 0 0 520 0 520 -1300 0 -1300 0 0 -520z"/>
<path d="M3130 4940 l0 -520 825 0 825 0 0 520 0 520 -825 0 -825 0 0 -520z"/>
<path d="M4810 4940 l0 -520 1300 0 1300 0 0 520 0 520 -1300 0 -1300 0 0
-520z"/>
<path d="M7440 4940 l0 -520 405 0 405 0 0 520 0 520 -405 0 -405 0 0 -520z"/>
<path d="M8284 5451 c-2 -2 -4 -105 -4 -228 l0 -223 80 0 79 0 3 118 3 117
113 3 112 3 0 107 0 107 -191 0 c-105 0 -193 -2 -195 -4z"/>
<path d="M8710 5350 l0 -109 113 -3 112 -3 3 -117 3 -118 74 0 75 0 0 230 0
230 -190 0 -190 0 0 -110z"/>
<path d="M9120 4940 l0 -520 405 0 405 0 0 520 0 520 -405 0 -405 0 0 -520z"/>
<path d="M9960 4940 l0 -520 405 0 405 0 0 520 0 520 -405 0 -405 0 0 -520z"/>
<path d="M8470 5110 l0 -110 60 0 60 0 0 -305 0 -305 -4045 0 -4045 0 0 -250
0 -250 395 0 395 0 0 -890 0 -890 -395 0 -395 0 0 -265 0 -265 3875 0 3875 0
0 1155 0 1155 1260 0 1260 0 0 250 0 250 -995 0 -995 0 0 305 0 305 65 0 65 0
0 110 0 109 -220 0 -220 0 0 -109z m-6040 -2110 l0 -890 -475 0 -475 0 0 890
0 890 475 0 475 0 0 -890z m3430 455 l0 -435 265 0 265 0 0 -455 0 -455 -1855
0 -1855 0 0 455 0 455 430 0 430 0 0 435 0 435 1160 0 1160 0 0 -435z m1210
170 l0 -265 140 0 140 0 0 265 0 265 380 0 380 0 0 -890 0 -890 -765 0 -765 0
0 890 0 890 245 0 245 0 0 -265z"/>
<path d="M1510 3440 l0 -420 445 0 445 0 0 420 0 420 -445 0 -445 0 0 -420z"/>
<path d="M1510 2565 l0 -425 445 0 445 0 0 425 0 425 -445 0 -445 0 0 -425z"/>
<path d="M3570 3440 l0 -420 830 0 830 0 0 260 0 260 300 0 300 0 0 160 0 160
-1130 0 -1130 0 0 -420z"/>
<path d="M5260 3265 l0 -245 253 2 c138 0 237 3 220 5 -25 3 -33 9 -33 24 0
15 -7 19 -35 19 l-35 0 0 185 0 185 35 0 c31 0 35 3 35 25 0 21 5 25 30 25 17
0 30 5 30 10 0 6 -90 10 -250 10 l-250 0 0 -245z"/>
<path d="M5780 3265 l0 -245 25 0 25 0 0 245 0 245 -25 0 -25 0 0 -245z"/>
<path d="M5720 3260 c0 -203 1 -210 20 -210 19 0 20 7 20 210 0 203 -1 210
-20 210 -19 0 -20 -7 -20 -210z"/>
<path d="M5650 3255 l0 -165 25 0 25 0 0 165 0 165 -25 0 -25 0 0 -165z"/>
<path d="M2710 2565 l0 -425 680 0 680 0 0 425 0 425 -680 0 -680 0 0 -425z"/>
<path d="M4100 2565 l0 -425 670 0 670 0 0 425 0 425 -670 0 -670 0 0 -425z"/>
<path d="M5470 2565 l0 -425 215 0 215 0 0 425 0 425 -215 0 -215 0 0 -425z"/>
<path d="M5930 2565 l0 -425 215 0 215 0 0 425 0 425 -215 0 -215 0 0 -425z"/>
<path d="M6610 3440 l0 -420 215 0 215 0 0 420 0 420 -215 0 -215 0 0 -420z"/>
<path d="M7380 3440 l0 -420 350 0 350 0 0 420 0 420 -350 0 -350 0 0 -420z"/>
<path d="M7070 3175 l0 -155 140 0 140 0 0 155 0 155 -140 0 -140 0 0 -155z"/>
<path d="M6610 2565 l0 -425 735 0 735 0 0 425 0 425 -735 0 -735 0 0 -425z"/>
<path d="M8280 4695 l0 -275 140 0 140 0 0 275 0 275 -140 0 -140 0 0 -275z"/>
<path d="M8810 4825 l0 -145 140 0 140 0 0 145 0 145 -140 0 -140 0 0 -145z"/>
<path d="M8810 4535 l0 -115 140 0 140 0 0 115 0 115 -140 0 -140 0 0 -115z"/>
<path d="M510 3000 l0 -860 375 0 375 0 0 860 0 860 -375 0 -375 0 0 -860z"/>
<path d="M500 1030 l0 -520 885 0 885 0 0 520 0 520 -885 0 -885 0 0 -520z"/>
<path d="M2300 1030 l0 -520 405 0 405 0 0 520 0 520 -405 0 -405 0 0 -520z"/>
<path d="M3140 1030 l0 -520 405 0 405 0 0 520 0 520 -405 0 -405 0 0 -520z"/>
<path d="M3980 1030 l0 -520 400 0 400 0 0 520 0 520 -400 0 -400 0 0 -520z"/>
<path d="M4810 1030 l0 -520 405 0 405 0 0 520 0 520 -405 0 -405 0 0 -520z"/>
<path d="M5650 1030 l0 -520 405 0 405 0 0 520 0 520 -405 0 -405 0 0 -520z"/>
<path d="M6490 1030 l0 -520 880 0 880 0 0 520 0 520 -880 0 -880 0 0 -520z"/>
</g>
</svg>
