<?xml version="1.0" encoding="utf-8"?>
<!-- Generator: Adobe Illustrator 16.0.0, SVG Export Plug-In . SVG Version: 6.00 Build 0)  -->
<!DOCTYPE svg PUBLIC "-//W3C//DTD SVG 1.1//EN" "http://www.w3.org/Graphics/SVG/1.1/DTD/svg11.dtd">
<svg version="1.1" id="Layer_1" xmlns="http://www.w3.org/2000/svg" xmlns:xlink="http://www.w3.org/1999/xlink" x="0px" y="0px"
	 width="1200px" height="800px" viewBox="0 0 1200 800" enable-background="new 0 0 1200 800" xml:space="preserve">
<g transform="translate(0.000000,800.000000) scale(0.100000,-0.100000)">
	<path d="M4010,6925v-925h1475h1475v925v925H5485H4010V6925z"/>
	<path d="M6989.999,6925c0-508.999,0.996-925,2.998-925c117.002-13.999,602.998-45,605-38.999
		c5,12.998,1192.002,11.997,1192.002-1.001c0-6.001,125-10,355-10h355v950v950h-1255h-1255V6925z"/>
	<path d="M6989.999,5962.998c0-3.999,12.998-45.996,27.002-92.998l27.002-85l2.998-547.002l2.998-547.998h-840h-840v-820v-820h35
		c34.004,0,35-0.996,35-40s0.996-40,35-40c35,0,35,0,35-45s0-45,35-45h35v-420v-420h-35c-32.998,0-35-2.002-35-35s-2.002-35-35-35
		h-35v-55v-55h-35h-35v-475l0.996-475H5615h245v-80c0-77.998,0.996-80.996,27.002-90.996C5967.998,707.998,6390,610,6440.996,610
		c18.008,0,19.004,10,19.004,145v145h340h340V707.998V517.002l217.998,5.996c711.006,21.006,1332.998,182.002,1810,469.004
		c321.006,192.998,537.998,443.994,612.002,710c25,87.002,39.004,267.998,22.002,267.998c-9.004,0-12.002,115.996-12.002,445.996
		v445l-52.002,23.008c-62.002,26.992-142.998,45.996-197.998,45.996h-40v1495v1495h-355h-355v-25c0-22.002-4.004-25-40-25
		c-39.004,0-40-1.001-40-35c0-35,0-35-45-35s-45,0-45-35v-35h-420h-420v35c0,32.998-2.002,35-35,35s-35,2.002-35,35v35h-55
		c-52.002,0-55,1.001-55,23.999c0,30,2.002,28.999-295,51.001c-115,7.998-234.004,17.002-262.002,21.001
		C7014.003,5968.999,6989.999,5967.998,6989.999,5962.998z M6710,3740v-400h-360h-360v400v400h360h360V3740z"/>
	<path d="M6020,3740v-370h330h330v370v370h-330h-330V3740z"/>
	<path d="M7629.999,5920c0-20,7.002-20,565-20s565,0,565,20s-7.002,20-565,20S7629.999,5940,7629.999,5920z"/>
	<path d="M7739.999,5850c0-20,7.002-20,470-20s470,0,470,20s-7.002,20-470,20S7739.999,5870,7739.999,5850z"/>
	<path d="M7809.999,5780c0-20,7.002-20,390-20s390,0,390,20s-7.002,20-390,20S7809.999,5800,7809.999,5780z"/>
	<path d="M9529.999,5405v-385h260h260v385v385h-260h-260V5405z"/>
	<path d="M330,5235v-515h825h825v515v515h-825H330V5235z"/>
	<path d="M2010,5235v-515h825h825v515v515h-825h-825V5235z"/>
	<path d="M3690,5235v-515h825h825v515v515h-825h-825V5235z"/>
	<path d="M5370,5235v-515h825h825v515v515h-825h-825V5235z"/>
	<path d="M9529.999,4285v-695h965h965v695v695h-965h-965V4285z"/>
	<path d="M330,4435v-255h280h280v-900v-900H610H330v-505v-505h2505h2505v950v950h-35c-34.004,0-35,0.996-35,40s-0.996,40-35,40
		c-35,0-35,0-35,45s0,45-35,45h-35v420v420h35c32.998,0,35,2.002,35,35s2.002,35,35,35h35v55v55h35h35v115v115H2835H330V4435z
		 M3700,3275v-975H2365H1030v975v975h1335h1335V3275z"/>
	<path d="M1060,3755v-465h315h315v465v465h-315h-315V3755z"/>
	<path d="M1720,3755v-465h315h315v465v465h-315h-315V3755z"/>
	<path d="M2380,3755v-465h315h315v465v465h-315h-315V3755z"/>
	<path d="M3040,3755v-465h315h315v465v465h-315h-315V3755z"/>
	<path d="M1060,2795v-465h315h315v465v465h-315h-315V2795z"/>
	<path d="M1720,2795v-465h315h315v465v465h-315h-315V2795z"/>
	<path d="M2380,2795v-465h315h315v465v465h-315h-315V2795z"/>
	<path d="M3040,2795v-465h130h130v465v465h-130h-130V2795z"/>
	<path d="M3330,3085v-175h170h170v175v175h-170h-170V3085z"/>
	<path d="M3330,2605v-275h170h170v275v275h-170h-170V2605z"/>
	<path d="M5300,3865c0-557.998,0-565,20-565s20,7.002,20,565s0,565-20,565S5300,4422.998,5300,3865z"/>
	<path d="M5230,3850c0-462.998,0-470,20-470s20,7.002,20,470s0,470-20,470S5230,4312.998,5230,3850z"/>
	<path d="M5160,3860c0-382.998,0-390,20-390s20,7.002,20,390s0,390-20,390S5160,4242.998,5160,3860z"/>
	<path d="M90,3280v-870h385h385v870v870H475H90V3280z"/>
	<path d="M5370,2455c0-557.998,0-565,20-565s20,7.002,20,565s0,565-20,565S5370,3012.998,5370,2455z"/>
	<path d="M5440,2470c0-462.998,0-470,20-470s20,7.002,20,470s0,470-20,470S5440,2932.998,5440,2470z"/>
	<path d="M5510,2460c0-382.998,0-390,20-390s20,7.002,20,390s0,390-20,390S5510,2842.998,5510,2460z"/>
	<path d="M9819.999,2425c0-417.998,0-425,20-425s20,7.002,20,425s0,425-20,425S9819.999,2842.998,9819.999,2425z"/>
	<path d="M330,825V310h825h825v515v515h-825H330V825z"/>
	<path d="M2010,825V310h825h825v515v515h-825h-825V825z"/>
	<path d="M3690,825V310h825h825v515v515h-825h-825V825z"/>
	<path d="M5370,640V400h230h230v240v240h-230h-230V640z"/>
	<path d="M6490,590V310h310h310v280v280h-310h-310V590z"/>
</g>
<text transform="matrix(1 0 0 1 525 100.1709)" fill="#00F284" font-family="'MyriadPro-Regular'" font-size="21">AUDI</text>
<text transform="matrix(1 0 0 1 758.9736 100.1709)" fill="#00F284" font-family="'MyriadPro-Regular'" font-size="21">AUDI-entrance</text>
<text transform="matrix(1 0 0 1 744 413.5)" fill="#00F284" font-family="'MyriadPro-Regular'" font-size="21">hall</text>
<text transform="matrix(1 0 0 1 427.9736 717.5)" fill="#00F284" font-family="'MyriadPro-Regular'" font-size="21">M23</text>
<text transform="matrix(1 0 0 1 248.9736 717.5)" fill="#00F284" font-family="'MyriadPro-Regular'" font-size="21">M22</text>
<text transform="matrix(1 0 0 1 76.9736 717.5)" fill="#00F284" font-family="'MyriadPro-Regular'" font-size="21">M21</text>
</svg>
