<?xml version="1.0" encoding="utf-8"?>
<!-- Generator: Adobe Illustrator 16.0.0, SVG Export Plug-In . SVG Version: 6.00 Build 0)  -->
<!DOCTYPE svg PUBLIC "-//W3C//DTD SVG 1.1//EN" "http://www.w3.org/Graphics/SVG/1.1/DTD/svg11.dtd">
<svg version="1.1" id="Layer_1" xmlns="http://www.w3.org/2000/svg" xmlns:xlink="http://www.w3.org/1999/xlink" x="0px" y="0px"
	 width="1125px" height="597px" viewBox="0 0 1125 597" enable-background="new 0 0 1125 597" xml:space="preserve">
<g transform="translate(0.000000,597.000000) scale(0.100000,-0.100000)">
	<path d="M500,4940v-520h1300h1300v520v520H1800H500V4940z"/>
	<path d="M3130,4940v-520h825h825v520v520h-825h-825V4940z"/>
	<path d="M4810,4940v-520h1300h1300v520v520H6110H4810V4940z"/>
	<path d="M7439.999,4940v-520h405h405v520v520h-405h-405V4940z"/>
	<path d="M8284.003,5451c-2.002-2.002-4.004-105-4.004-228.003V5000h80h79.004l2.998,117.998l2.998,117.002l112.998,2.998
		l112.002,3.003v106.997V5455h-190.996C8374.003,5455,8285.995,5452.998,8284.003,5451z"/>
	<path d="M8709.999,5350V5241l112.998-3.003l112.002-2.998l2.998-117.002l2.998-117.998h74.004h75v230v230h-190h-190V5350z"/>
	<path d="M9119.999,4940v-520h405h405v520v520h-405h-405V4940z"/>
	<path d="M9959.999,4940v-520h405h405v520v520h-405h-405V4940z"/>
	<path d="M8469.999,5110v-110h60h60v-305v-305H4545H500v-250v-250h395h395v-890v-890H895H500v-265v-265h3875h3875v1155v1155h1260
		h1260v250v250h-995h-995v305v305h65h65v110v108.999h-220h-220V5110z M2430,3000v-890h-475h-475v890v890h475h475V3000z M5860,3455
		v-435h265h265v-455v-455H4535H2680v455v455h430h430v435v435h1160h1160V3455z M8109.999,3000v-890h-765h-765v890v890h765h765V3000z"
		/>
	<path d="M1510,3440v-420h445h445v420v420h-445h-445V3440z"/>
	<path d="M1510,2565v-425h445h445v425v425h-445h-445V2565z"/>
	<path d="M3570,3440v-420h830h830v260v260h300h300v160v160H4700H3570V3440z"/>
	<path d="M5260,3265v-245l252.998,2.002c137.998,0,237.002,2.998,220,5C5707.998,3030,5700,3036,5700,3051s-7.002,18.999-35,18.999
		h-35v185v185h35c30.996,0,35,2.998,35,25c0,21.001,5,25,30,25c17.002,0,30,5,30,10c0,6.001-90,10-250,10h-250V3265z"/>
	<path d="M5780,3265v-245h25h25v245v245h-25h-25V3265z"/>
	<path d="M5720,3260c0-202.998,0.996-210,20-210s20,7.002,20,210s-0.996,210-20,210S5720,3462.998,5720,3260z"/>
	<path d="M5650,3255v-165h25h25v165v165h-25h-25V3255z"/>
	<path d="M2710,2565v-425h680h680v425v425h-680h-680V2565z"/>
	<path d="M4100,2565v-425h670h670v425v425h-670h-670V2565z"/>
	<path d="M5470,2565v-425h215h215v425v425h-215h-215V2565z"/>
	<path d="M5930,2565v-425h215h215v425v425h-215h-215V2565z"/>
	<path d="M6609.999,3440v-420h215h215v420v420h-215h-215V3440z"/>
	<path d="M7069.999,3440v-420h505h505v420v420h-505h-505V3440z"/>
	<path d="M6609.999,2565v-425h735h735v425v425h-735h-735V2565z"/>
	<path d="M8279.999,4695v-275h140h140v275v275h-140h-140V4695z"/>
	<path d="M8809.999,4825v-145h140h140v145v145h-140h-140V4825z"/>
	<path d="M8809.999,4535v-115h140h140v115v115h-140h-140V4535z"/>
	<path d="M510,3000v-860h375h375v860v860H885H510V3000z"/>
	<path d="M500,1030V510h885h885v520v520h-885H500V1030z"/>
	<path d="M2300,1030V510h405h405v520v520h-405h-405V1030z"/>
	<path d="M3140,1030V510h405h405v520v520h-405h-405V1030z"/>
	<path d="M3980,1030V510h400h400v520v520h-400h-400V1030z"/>
	<path d="M4810,1030V510h405h405v520v520h-405h-405V1030z"/>
	<path d="M5650,1030V510h405h405v520v520h-405h-405V1030z"/>
	<path d="M6489.999,1030V510h880h880v520v520h-880h-880V1030z"/>
</g>
<text transform="matrix(1 0 0 1 134 123.5)" fill="#FFFDFD" font-family="'MyriadPro-Regular'" font-size="48">304</text>
</svg>
