<?xml version="1.0" encoding="utf-8"?>
<!-- Generator: Adobe Illustrator 16.0.0, SVG Export Plug-In . SVG Version: 6.00 Build 0)  -->
<!DOCTYPE svg PUBLIC "-//W3C//DTD SVG 1.1//EN" "http://www.w3.org/Graphics/SVG/1.1/DTD/svg11.dtd">
<svg version="1.1" id="Layer_1" xmlns="http://www.w3.org/2000/svg" xmlns:xlink="http://www.w3.org/1999/xlink" x="0px" y="0px"
	 width="1200px" height="800px" viewBox="0 0 1200 800" enable-background="new 0 0 1200 800" xml:space="preserve">
<g transform="translate(0.000000,800.000000) scale(0.100000,-0.100000)">
	<path d="M1070,5550v-520h1300h1300v520v520H2370H1070V5550z"/>
	<path d="M3700,5550v-520h825h825v520v520h-825h-825V5550z"/>
	<path d="M5380,5550v-520h1300h1300v520v520H6680H5380V5550z"/>
	<path d="M8009.999,5550v-520h405h405v520v520h-405h-405V5550z"/>
	<path d="M9689.999,5550v-520h405h405v520v520h-405h-405V5550z"/>
	<path d="M10529.999,5550v-520h405h405v520v520h-405h-405V5550z"/>
	<path d="M8849.999,5835v-225h80h80v120v120h115h115v105v105h-195h-195V5835z"/>
	<path d="M9279.999,5955V5851l112.998-3.003l112.002-2.998l2.998-117.002l2.998-117.998h74.004h75v225v225h-190h-190V5955z"/>
	<path d="M9039.999,5715v-105h60h60v-305v-305H5115H1070v-250v-250h395h395v-890v-890h-395h-395v-265v-265h2520h2520v-290v-290h190
		h190v890v890h330h330v555v555h2095h2095v250v250h-995h-995v305v305h65h65v105v105h-220h-220V5715z M4640,3610v-890H3335H2030v890
		v890h1305h1305V3610z M6090,4230v-270h35c27.998,0,35-4.004,35-20s7.002-20,30-20s30-4.004,30-20s7.002-20,35-20h35v-185v-185h-35
		c-30.996,0-35-2.998-35-25c0-20.996-5-25-30-25c-22.998,0-30-4.004-30-20s-7.002-20-35-20h-35v-350v-350h-650h-650v890v890h650h650
		V4230z"/>
	<path d="M2060,4045v-425h645h645v425v425h-645h-645V4045z"/>
	<path d="M3382.002,4047.998L3385,3625l612.998-2.998L4610,3620v425v425h-615h-615L3382.002,4047.998z"/>
	<path d="M2060,3170v-420h410h410v420v420h-410h-410V3170z"/>
	<path d="M2910,3170v-420h430h430v420v420h-430h-430V3170z"/>
	<path d="M3800,3170v-420h405h405v420v420h-405h-405V3170z"/>
	<path d="M4820,3610v-860h620h620v595v595h-545h-545v265v265h-75h-75V3610z"/>
	<path d="M4990,4215v-255h230c147.002,0,230,4.004,230,10s-80,10-220,10h-220v245c0,157.002-4.004,245-10,245
		S4990,4377.998,4990,4215z"/>
	<path d="M5030,4235v-235h180c112.998,0,180,4.004,180,10s-62.998,10-170,10h-170v225c0,142.998-4.004,225-10,225
		S5030,4385,5030,4235z"/>
	<path d="M5070,4255v-215h125h125v175v175h35c30.996,0,35,2.998,35,25c0,21.001,5,25,30,25c20,0,30,5,30,15
		c0,12.998-27.998,15-190,15h-190V4255z"/>
	<path d="M5470,4215c0-247.998,0.996-255,20-255s20,7.002,20,255s-0.996,255-20,255S5470,4462.998,5470,4215z"/>
	<path d="M5530,4215v-255h230c197.998,0,230,2.002,230,15c0,10-10,15-30,15c-22.998,0-30,4.004-30,20s-7.002,20-35,20h-35v185v185
		h35c30.996,0,35,2.998,35,25c0,21.001,5,25,30,25c17.002,0,30,5,30,10c0,6.001-82.998,10-230,10h-230V4215z"/>
	<path d="M6010,4215v-255h25h25v255v255h-25h-25V4215z"/>
	<path d="M5950,4220c0-202.998,0.996-210,20-210s20,7.002,20,210s-0.996,210-20,210S5950,4422.998,5950,4220z"/>
	<path d="M5410,4210c0-202.998,0.996-210,20-210s20,7.002,20,210s-0.996,210-20,210S5410,4412.998,5410,4210z"/>
	<path d="M5880,4215v-165h25h25v165v165h-25h-25V4215z"/>
	<path d="M5340,4205v-165h25h25v165v165h-25h-25V4205z"/>
	<path d="M6090,3690v-250h25h25v250v250h-25h-25V3690z"/>
	<path d="M6160,3690c0-202.998,0.996-210,20-210s20,7.002,20,210c0,202.998-0.996,210-20,210S6160,3892.998,6160,3690z"/>
	<path d="M6220,3695v-165h25h25v165v165h-25h-25V3695z"/>
	<path d="M8849.999,5305v-275h140h140v275v275h-140h-140V5305z"/>
	<path d="M9379.999,5435v-145h140h140v145v145h-140h-140V5435z"/>
	<path d="M9379.999,5145v-115h140h140v115v115h-140h-140V5145z"/>
	<path d="M1080,3610v-860h375h375v860v860h-375h-375V3610z"/>
	<path d="M7179.999,3930v-540h235h235v540v540h-235h-235V3930z"/>
	<path d="M7679.999,3930v-540h560h560v540v540h-560h-560V3930z"/>
	<path d="M1070,1640v-520h825h825v520v520h-825h-825V1640z"/>
	<path d="M2750,1640v-520h405h405v520v520h-405h-405V1640z"/>
	<path d="M3590,1640v-520h405h405v520v520h-405h-405V1640z"/>
	<path d="M4430,1640v-520h825h825v520v520h-825h-825V1640z"/>
	<path d="M6110,1350v-230h190h190v230v230h-190h-190V1350z"/>
</g>
<text transform="matrix(1 0 0 1 206 256.5)" fill="#FFFFFF" font-family="'MyriadPro-Regular'" font-size="36">203</text>
<text transform="matrix(1 0 0 1 410 256.5)" fill="#FFFFFF" font-family="'MyriadPro-Regular'" font-size="36">205</text>
<text transform="matrix(1 0 0 1 622 256.5)" fill="#FFFFFF" font-family="'MyriadPro-Regular'" font-size="36">207</text>
<text transform="matrix(1 0 0 1 806.5 256.5)" fill="#FFFFFF" font-family="'MyriadPro-Regular'" font-size="36">209</text>
<text transform="matrix(1 0 0 1 247 404)" fill="#FFFFFF" font-family="'MyriadPro-Regular'" font-size="36">218</text>
<text transform="matrix(1 0 0 1 367 404)" fill="#FFFFFF" font-family="'MyriadPro-Regular'" font-size="36">219</text>
<text transform="matrix(1 0 0 1 214 488)" fill="#FFFFFF" font-family="'MyriadPro-Regular'" font-size="36">220</text>
<text transform="matrix(1 0 0 1 300 488)" fill="#FFFFFF" font-family="'MyriadPro-Regular'" font-size="36">221</text>
<text transform="matrix(1 0 0 1 390 488)" fill="#FFFFFF" font-family="'MyriadPro-Regular'" font-size="36">222</text>
<text transform="matrix(1 0 0 1 145.5 639)" fill="#FFFFFF" font-family="'MyriadPro-Regular'" font-size="36">223</text>
<text transform="matrix(1 0 0 1 288 639)" fill="#FFFFFF" font-family="'MyriadPro-Regular'" font-size="36">224</text>
<text transform="matrix(1 0 0 1 367 639)" fill="#FFFFFF" font-family="'MyriadPro-Regular'" font-size="36">225</text>
<text transform="matrix(1 0 0 1 487 639)" fill="#FFFFFF" font-family="'MyriadPro-Regular'" font-size="36">226</text>
</svg>
