<?xml version="1.0" standalone="no"?>
<!DOCTYPE svg PUBLIC "-//W3C//DTD SVG 20010904//EN"
 "http://www.w3.org/TR/2001/REC-SVG-20010904/DTD/svg10.dtd">
<svg version="1.0" xmlns="http://www.w3.org/2000/svg"
 width="1136.000000pt" height="624.000000pt" viewBox="0 0 1136.000000 624.000000"
 preserveAspectRatio="xMidYMid meet">
<metadata>
Created by potrace 1.15, written by Peter Selinger 2001-2017
</metadata>
<g transform="translate(0.000000,624.000000) scale(0.100000,-0.100000)"
fill="#000000" stroke="none">
<path d="M3480 4805 l0 -795 1205 0 1205 0 0 795 0 795 -1205 0 -1205 0 0
-795z"/>
<path d="M5920 4805 l0 -795 1205 0 1205 0 0 795 0 795 -1205 0 -1205 0 0
-795z"/>
<path d="M9270 3805 l0 -965 795 0 795 0 0 965 0 965 -795 0 -795 0 0 -965z"/>
<path d="M670 2320 l0 -1660 3215 0 3215 0 0 1090 0 1090 615 0 615 0 0 570 0
570 -3830 0 -3830 0 0 -1660z"/>
<path d="M550 2450 l0 -370 45 0 45 0 0 370 0 370 -45 0 -45 0 0 -370z"/>
<path d="M7130 2445 l0 -365 45 0 45 0 0 365 0 365 -45 0 -45 0 0 -365z"/>
<path d="M9270 1935 l0 -875 795 0 795 0 0 875 0 875 -795 0 -795 0 0 -875z"/>
</g>
</svg>
